<svg xmlns="http://www.w3.org/2000/svg" viewBox="-.9 307.9 612.9 179.1"><path d="M298.7 400.8L342 308h11l43.6 92.7h-24.4l-5.7-12.1h-37.9l-5.6 12.1h-24.3zm39.5-32.7h18.9l-9.4-20.4-9.5 20.4zm138.9 32.7l-43.8-43.9v43.9H409V308h9.9l43.9 43.8V308h24.4v92.7h-10.1zm36.8-73.2c-5.3 0-9.8-4.2-9.8-9.6 0-5.3 4.4-10 9.8-10s9.8 4.7 9.8 10c0 0 .6 10.9-9.8 19.7v-10.1z" fill="#262626"/><path d="M21.4 443.3c0 2.8-1 5.1-3.1 6.7-2 1.6-4.9 2.4-8.4 2.4-3.9 0-6.8-.4-8.9-1.4v-3.6c1.4.6 2.7 1 4.3 1.4 1.6.3 3.1.5 4.7.5 2.5 0 4.4-.5 5.7-1.5 1.3-.9 1.9-2.3 1.9-4 0-1.1-.2-2-.7-2.7-.5-.7-1.3-1.4-2.3-1.9-1-.6-2.6-1.3-4.8-2-3.1-1-5.1-2.4-6.5-3.9-1.3-1.5-1.9-3.4-1.9-5.8 0-2.5.9-4.4 2.8-5.9s4.3-2.2 7.4-2.2c3.2 0 6.1.6 8.9 1.8l-1.1 3.3c-2.7-1.1-5.2-1.7-7.9-1.7-2 0-3.5.5-4.7 1.3-1.1.9-1.7 2-1.7 3.5 0 1.1.2 2 .6 2.7.5.7 1.1 1.4 2 1.9 1 .6 2.5 1.3 4.6 1.9 3.4 1.3 5.7 2.5 7.1 3.9 1.3 1.2 2 3.1 2 5.3zm21.3 8.6h-3.8v-29H28.7v-3.4H53v3.3H42.8v29.1h-.1zm44.2-32.5v20.9c0 3.6-1.1 6.6-3.3 8.8-2.3 2.2-5.3 3.2-9.2 3.2s-6.9-1-9.1-3.2-3.2-5-3.2-8.8v-20.9h3.8v21.2c0 2.7.7 4.8 2.2 6.3 1.5 1.5 3.6 2.2 6.5 2.2 2.7 0 4.9-.7 6.4-2.2s2.2-3.5 2.2-6.3v-21.2h3.7zm39.1 16c0 5.3-1.5 9.4-4.3 12.3-3 2.8-7.1 4.2-12.5 4.2h-9v-32.4h9.9c5 0 9 1.4 11.7 4.2 2.8 2.8 4.2 6.7 4.2 11.7zm-4 .1c0-4.2-1-7.4-3.2-9.6s-5.2-3.2-9.4-3.2h-5.5v25.9h4.6c4.6 0 7.9-1.1 10.1-3.3 2.3-2.2 3.4-5.5 3.4-9.8zm33.9 16.4h-18.1v-32.4h18.1v3.3h-14.3v10.5H155v3.3h-13.4v11.9h14.3v3.4zm37.2 0h-4.3L171 424.7h-.2c.2 3.2.3 6.1.3 8.8v18.4h-3.5v-32.4h4.2l17.6 27.1h.2c0-.5-.1-1.7-.2-3.9s-.1-3.8-.1-4.7v-18.5h3.5v32.4h.3zm23.6 0h-3.8v-29h-10.2v-3.4H227v3.3h-10.2v29.1h-.1zm38-8.6c0 2.8-1 5.1-3.1 6.7-2 1.6-4.9 2.4-8.4 2.4-3.9 0-6.8-.5-8.9-1.5v-3.6c1.4.6 2.7 1 4.3 1.4 1.6.3 3.1.5 4.7.5 2.5 0 4.4-.5 5.7-1.5 1.3-.9 1.9-2.3 1.9-4 0-1.1-.2-2-.7-2.7-.5-.7-1.3-1.4-2.3-1.9-1-.6-2.6-1.3-4.8-2-3.1-1-5.1-2.4-6.5-3.9-1.3-1.5-1.9-3.4-1.9-5.8 0-2.5.9-4.4 2.8-5.9s4.3-2.2 7.4-2.2c3.2 0 6.1.6 8.9 1.8l-1.1 3.3c-2.7-1.1-5.2-1.7-7.9-1.7-2 0-3.5.5-4.7 1.3-1.1.9-1.7 2-1.7 3.5 0 1.1.2 2 .6 2.7.5.7 1.1 1.4 2 1.9 1 .6 2.5 1.3 4.6 1.9 3.4 1.3 5.7 2.5 7.1 3.9 1.4 1.3 2 3.2 2 5.4zm178.3 8.6h-3.8v-29H419v-3.4h24.4v3.3h-10.2v29.1h-.2zm44.3-32.5v20.9c0 3.6-1.1 6.6-3.3 8.8-2.3 2.2-5.3 3.2-9.2 3.2s-6.9-1-9.1-3.2-3.2-5-3.2-8.8v-20.9h3.8v21.2c0 2.7.7 4.8 2.2 6.3s3.6 2.2 6.5 2.2c2.7 0 4.9-.7 6.4-2.2s2.2-3.5 2.2-6.3v-21.2h3.7zm23.2 32.5h-3.8v-29h-10.2v-3.4h24.4v3.3h-10.2v29.1h-.2zm47.9-16.3c0 5.2-1.4 9.2-4 12.3-2.6 3-6.3 4.4-10.9 4.4-4.8 0-8.4-1.5-11-4.3-2.6-3-3.9-7.1-3.9-12.4 0-5.2 1.3-9.3 3.9-12.3 2.6-3 6.3-4.3 11-4.3s8.3 1.5 10.9 4.4c2.6 3 4 7.1 4 12.2zm-25.8 0c0 4.4.9 7.7 2.8 10 1.8 2.3 4.6 3.4 8.2 3.4s6.3-1.1 8.2-3.4c1.8-2.3 2.7-5.6 2.7-10 0-4.3-.9-7.6-2.7-9.9-1.8-2.3-4.6-3.4-8.1-3.4-3.6 0-6.4 1.1-8.2 3.4-2 2.3-2.9 5.6-2.9 9.9zm41.4 2.8V452h-3.8v-32.5h8.9c4 0 6.9.8 8.8 2.3 1.9 1.5 2.8 3.9 2.8 6.8 0 4.3-2.2 7.2-6.5 8.6l8.8 14.6h-4.4l-7.9-13.5H564v.1zm0-3.3h5.1c2.6 0 4.7-.6 5.8-1.6 1.3-1 1.8-2.6 1.8-4.8s-.7-3.6-1.9-4.7c-1.3-.9-3.3-1.4-6.1-1.4h-4.9V435l.2.1zm47.2 8.2c0 2.8-1 5.1-3.1 6.7-2 1.6-4.9 2.4-8.4 2.4-3.9 0-6.8-.5-8.9-1.5v-3.6c1.4.6 2.7 1 4.3 1.4 1.6.3 3.1.5 4.7.5 2.5 0 4.4-.5 5.7-1.5 1.3-.9 1.9-2.3 1.9-4 0-1.1-.2-2-.7-2.7-.5-.7-1.3-1.4-2.3-1.9s-2.6-1.3-4.8-2c-3.1-1-5.1-2.4-6.5-3.9-1.3-1.5-1.9-3.4-1.9-5.8 0-2.5.9-4.4 2.8-5.9s4.3-2.2 7.4-2.2c3.2 0 6.1.6 8.9 1.8l-1.1 3.3c-2.7-1.1-5.2-1.7-7.9-1.7-2 0-3.5.5-4.7 1.3-1.1.9-1.7 2-1.7 3.5 0 1.1.2 2 .6 2.7.5.7 1.1 1.4 2 1.9 1 .6 2.5 1.3 4.6 1.9 3.4 1.3 5.7 2.5 7.1 3.9 1.4 1.3 2 3.2 2 5.4z"/><path fill="#262626" d="M286.1 394.3h15.5v6.5h-15.5z"/><path d="M538.9 307.9H612v24.2h-24.6v68.6H563v-68.6h-24.1v-24.2zM35.6 336.5c0-3.9-3.2-7.1-7.1-7.1s-6.9 3.2-6.9 7.1 3.1 6.9 6.9 6.9c9 0 17.2 4.3 22.4 11 4 4.9 6.1 11.2 6.1 18 0 15.8-12.7 28.4-28.6 28.4S0 388.3 0 372h21.6c0 4 3.1 7.1 6.9 7.1s7.1-3.1 7.1-6.9-3.2-7.1-7.1-7.1C12.7 365.1.1 352.5.1 336.7c0-15.8 12.6-28.6 28.4-28.6s28.6 12.6 28.6 28.4H35.6zm36.9-28.6h73.1v24.2H121v68.6H96.5v-68.6h-24v-24.2zm114.1 55.9c0 6.7 5.5 12.1 12.1 12.1s12.1-5.5 12.1-12.1V308h24.5v56.1c0 20.4-16.4 36.6-36.6 36.6-20.4 0-36.6-16.2-36.6-36.6V308h24.7l-.2 55.8zm67.3-55.8h34.4c25.6 0 46.3 20.7 46.3 46.3s-20.7 46.3-46.3 46.3h-34.4V308zm24.2 68.5h10.2c12.1 0 22-9.9 22-22 0-11.9-9.9-21.8-22-21.8h-10.2v43.8zm31.8 75.4l-4-10.4h-13l-4 10.4H285l12.9-32.5h3.2l12.7 32.5h-3.9zm-5.3-13.7l-3.8-10c-.5-1.3-1-2.8-1.5-4.7-.3 1.4-.8 3-1.4 4.7l-3.9 10h10.6zm43.6 13.7h-4.3l-17.8-27.2h-.2c.2 3.2.3 6.1.3 8.8v18.4h-3.5v-32.4h4.2l17.6 27.1h.2c0-.5-.1-1.7-.2-3.9s-.1-3.8-.1-4.7v-18.5h3.5v32.4h.3zm39.4-16.5c0 5.3-1.5 9.4-4.3 12.3-3 2.8-7.1 4.2-12.5 4.2h-9v-32.4h9.9c5 0 9 1.4 11.7 4.2 2.8 2.8 4.2 6.7 4.2 11.7zm-4 .1c0-4.2-1-7.4-3.2-9.6s-5.2-3.2-9.4-3.2h-5.5v25.9h4.6c4.6 0 7.9-1.1 10.1-3.3 2.3-2.2 3.4-5.5 3.4-9.8z" fill="#F80"/></svg>
